<mxfile host="app.diagrams.net" modified="2022-10-19T02:38:26.861Z" agent="5.0 (Windows)" etag="V61AjEIWkM28mEKRag8p" version="20.4.0" type="github">
  <diagram id="C5RBs43oDa-KdzZeNtuy" name="Page-1">
    <mxGraphModel dx="1422" dy="780" grid="1" gridSize="10" guides="1" tooltips="1" connect="1" arrows="1" fold="1" page="1" pageScale="1" pageWidth="827" pageHeight="1169" math="0" shadow="0">
      <root>
        <mxCell id="WIyWlLk6GJQsqaUBKTNV-0" />
        <mxCell id="WIyWlLk6GJQsqaUBKTNV-1" parent="WIyWlLk6GJQsqaUBKTNV-0" />
        <mxCell id="K264SJ19d_QHVop9HXx--0" style="edgeStyle=orthogonalEdgeStyle;rounded=0;orthogonalLoop=1;jettySize=auto;html=1;exitX=0.5;exitY=0;exitDx=0;exitDy=0;entryX=0.5;entryY=0;entryDx=0;entryDy=0;" edge="1" parent="WIyWlLk6GJQsqaUBKTNV-1" source="K264SJ19d_QHVop9HXx--2" target="K264SJ19d_QHVop9HXx--4">
          <mxGeometry relative="1" as="geometry" />
        </mxCell>
        <mxCell id="K264SJ19d_QHVop9HXx--1" value="yes" style="edgeLabel;html=1;align=center;verticalAlign=middle;resizable=0;points=[];" vertex="1" connectable="0" parent="K264SJ19d_QHVop9HXx--0">
          <mxGeometry x="-0.8342" y="2" relative="1" as="geometry">
            <mxPoint as="offset" />
          </mxGeometry>
        </mxCell>
        <mxCell id="K264SJ19d_QHVop9HXx--10" style="edgeStyle=orthogonalEdgeStyle;rounded=0;orthogonalLoop=1;jettySize=auto;html=1;exitX=0.5;exitY=1;exitDx=0;exitDy=0;entryX=0.5;entryY=0;entryDx=0;entryDy=0;" edge="1" parent="WIyWlLk6GJQsqaUBKTNV-1" source="K264SJ19d_QHVop9HXx--2" target="K264SJ19d_QHVop9HXx--9">
          <mxGeometry relative="1" as="geometry" />
        </mxCell>
        <mxCell id="K264SJ19d_QHVop9HXx--11" value="no" style="edgeLabel;html=1;align=center;verticalAlign=middle;resizable=0;points=[];" vertex="1" connectable="0" parent="K264SJ19d_QHVop9HXx--10">
          <mxGeometry x="-0.729" y="2" relative="1" as="geometry">
            <mxPoint x="-2" y="8" as="offset" />
          </mxGeometry>
        </mxCell>
        <mxCell id="K264SJ19d_QHVop9HXx--2" value="&lt;div&gt;permitStatus!=submitted&lt;/div&gt;&lt;div&gt;&amp;amp;&amp;amp;&lt;/div&gt;&lt;div&gt;permitStatus!=in-use&lt;/div&gt;" style="rhombus;whiteSpace=wrap;html=1;" vertex="1" parent="WIyWlLk6GJQsqaUBKTNV-1">
          <mxGeometry x="599" y="50" width="200" height="115" as="geometry" />
        </mxCell>
        <mxCell id="K264SJ19d_QHVop9HXx--3" value="" style="edgeStyle=orthogonalEdgeStyle;rounded=0;orthogonalLoop=1;jettySize=auto;html=1;" edge="1" parent="WIyWlLk6GJQsqaUBKTNV-1" source="K264SJ19d_QHVop9HXx--4" target="K264SJ19d_QHVop9HXx--6">
          <mxGeometry relative="1" as="geometry" />
        </mxCell>
        <mxCell id="K264SJ19d_QHVop9HXx--4" value="开始" style="rounded=1;whiteSpace=wrap;html=1;fontSize=12;glass=0;strokeWidth=1;shadow=0;" vertex="1" parent="WIyWlLk6GJQsqaUBKTNV-1">
          <mxGeometry x="20" y="87.5" width="120" height="40" as="geometry" />
        </mxCell>
        <mxCell id="K264SJ19d_QHVop9HXx--5" value="" style="edgeStyle=orthogonalEdgeStyle;rounded=0;orthogonalLoop=1;jettySize=auto;html=1;" edge="1" parent="WIyWlLk6GJQsqaUBKTNV-1" source="K264SJ19d_QHVop9HXx--6" target="K264SJ19d_QHVop9HXx--8">
          <mxGeometry relative="1" as="geometry" />
        </mxCell>
        <mxCell id="K264SJ19d_QHVop9HXx--6" value="查询approvalLog记录" style="rounded=1;whiteSpace=wrap;html=1;glass=0;strokeWidth=1;shadow=0;" vertex="1" parent="WIyWlLk6GJQsqaUBKTNV-1">
          <mxGeometry x="209" y="77.5" width="120" height="60" as="geometry" />
        </mxCell>
        <mxCell id="K264SJ19d_QHVop9HXx--7" style="edgeStyle=orthogonalEdgeStyle;rounded=0;orthogonalLoop=1;jettySize=auto;html=1;exitX=1;exitY=0.5;exitDx=0;exitDy=0;entryX=0;entryY=0.5;entryDx=0;entryDy=0;" edge="1" parent="WIyWlLk6GJQsqaUBKTNV-1" source="K264SJ19d_QHVop9HXx--8" target="K264SJ19d_QHVop9HXx--2">
          <mxGeometry relative="1" as="geometry" />
        </mxCell>
        <mxCell id="K264SJ19d_QHVop9HXx--8" value="&lt;div&gt;查询&lt;/div&gt;&lt;div&gt;specialApprovalApp记录&lt;br&gt;&lt;/div&gt;" style="whiteSpace=wrap;html=1;rounded=1;glass=0;strokeWidth=1;shadow=0;" vertex="1" parent="WIyWlLk6GJQsqaUBKTNV-1">
          <mxGeometry x="390" y="77.5" width="140" height="60" as="geometry" />
        </mxCell>
        <mxCell id="K264SJ19d_QHVop9HXx--23" style="edgeStyle=orthogonalEdgeStyle;rounded=0;orthogonalLoop=1;jettySize=auto;html=1;exitX=0;exitY=0.5;exitDx=0;exitDy=0;entryX=1;entryY=0.5;entryDx=0;entryDy=0;" edge="1" parent="WIyWlLk6GJQsqaUBKTNV-1" source="K264SJ19d_QHVop9HXx--9" target="K264SJ19d_QHVop9HXx--24">
          <mxGeometry relative="1" as="geometry" />
        </mxCell>
        <mxCell id="K264SJ19d_QHVop9HXx--9" value="&lt;div&gt;用&lt;br&gt;&lt;/div&gt;&lt;div&gt;specItemIds&lt;/div&gt;&lt;div&gt;查询specItemList&lt;br&gt;&lt;/div&gt;" style="rounded=1;whiteSpace=wrap;html=1;" vertex="1" parent="WIyWlLk6GJQsqaUBKTNV-1">
          <mxGeometry x="639" y="220" width="120" height="60" as="geometry" />
        </mxCell>
        <mxCell id="K264SJ19d_QHVop9HXx--12" style="edgeStyle=orthogonalEdgeStyle;rounded=0;orthogonalLoop=1;jettySize=auto;html=1;exitX=0;exitY=0.5;exitDx=0;exitDy=0;entryX=1;entryY=0.5;entryDx=0;entryDy=0;" edge="1" parent="WIyWlLk6GJQsqaUBKTNV-1" source="K264SJ19d_QHVop9HXx--13" target="K264SJ19d_QHVop9HXx--16">
          <mxGeometry relative="1" as="geometry" />
        </mxCell>
        <mxCell id="K264SJ19d_QHVop9HXx--13" value="&lt;div&gt;遍历&lt;br&gt;&lt;/div&gt;&lt;div&gt;specItemList&lt;/div&gt;" style="whiteSpace=wrap;html=1;rounded=1;" vertex="1" parent="WIyWlLk6GJQsqaUBKTNV-1">
          <mxGeometry x="346.87" y="220" width="120" height="60" as="geometry" />
        </mxCell>
        <mxCell id="K264SJ19d_QHVop9HXx--14" value="" style="edgeStyle=orthogonalEdgeStyle;rounded=0;orthogonalLoop=1;jettySize=auto;html=1;" edge="1" parent="WIyWlLk6GJQsqaUBKTNV-1" source="K264SJ19d_QHVop9HXx--16" target="K264SJ19d_QHVop9HXx--18">
          <mxGeometry relative="1" as="geometry" />
        </mxCell>
        <mxCell id="K264SJ19d_QHVop9HXx--15" value="yes" style="edgeLabel;html=1;align=center;verticalAlign=middle;resizable=0;points=[];" vertex="1" connectable="0" parent="K264SJ19d_QHVop9HXx--14">
          <mxGeometry x="-0.68" relative="1" as="geometry">
            <mxPoint x="-14" as="offset" />
          </mxGeometry>
        </mxCell>
        <mxCell id="K264SJ19d_QHVop9HXx--16" value="&lt;div&gt;check是否&lt;/div&gt;&lt;div&gt;被permit&lt;/div&gt;&lt;div&gt;使用了&lt;br&gt;&lt;/div&gt;" style="rhombus;whiteSpace=wrap;html=1;" vertex="1" parent="WIyWlLk6GJQsqaUBKTNV-1">
          <mxGeometry x="206.87" y="205" width="100" height="90" as="geometry" />
        </mxCell>
        <mxCell id="K264SJ19d_QHVop9HXx--27" style="edgeStyle=orthogonalEdgeStyle;rounded=0;orthogonalLoop=1;jettySize=auto;html=1;exitX=0.5;exitY=1;exitDx=0;exitDy=0;entryX=0.5;entryY=0;entryDx=0;entryDy=0;" edge="1" parent="WIyWlLk6GJQsqaUBKTNV-1" source="K264SJ19d_QHVop9HXx--16" target="K264SJ19d_QHVop9HXx--22">
          <mxGeometry relative="1" as="geometry" />
        </mxCell>
        <mxCell id="K264SJ19d_QHVop9HXx--32" value="no" style="edgeLabel;html=1;align=center;verticalAlign=middle;resizable=0;points=[];" vertex="1" connectable="0" parent="K264SJ19d_QHVop9HXx--27">
          <mxGeometry x="-0.28" y="2" relative="1" as="geometry">
            <mxPoint as="offset" />
          </mxGeometry>
        </mxCell>
        <mxCell id="K264SJ19d_QHVop9HXx--40" style="edgeStyle=orthogonalEdgeStyle;rounded=0;orthogonalLoop=1;jettySize=auto;html=1;exitX=0.5;exitY=1;exitDx=0;exitDy=0;entryX=0.5;entryY=0;entryDx=0;entryDy=0;" edge="1" parent="WIyWlLk6GJQsqaUBKTNV-1" source="K264SJ19d_QHVop9HXx--18" target="K264SJ19d_QHVop9HXx--22">
          <mxGeometry relative="1" as="geometry">
            <Array as="points">
              <mxPoint x="115" y="340" />
              <mxPoint x="257" y="340" />
            </Array>
          </mxGeometry>
        </mxCell>
        <mxCell id="K264SJ19d_QHVop9HXx--18" value="&lt;div&gt;errorMessage添加&lt;/div&gt;&lt;div&gt;错误日志&lt;br&gt;&lt;/div&gt;" style="rounded=1;whiteSpace=wrap;html=1;" vertex="1" parent="WIyWlLk6GJQsqaUBKTNV-1">
          <mxGeometry x="70" y="225" width="90" height="50" as="geometry" />
        </mxCell>
        <mxCell id="K264SJ19d_QHVop9HXx--34" style="edgeStyle=orthogonalEdgeStyle;rounded=0;orthogonalLoop=1;jettySize=auto;html=1;exitX=1;exitY=0.5;exitDx=0;exitDy=0;entryX=0.5;entryY=1;entryDx=0;entryDy=0;" edge="1" parent="WIyWlLk6GJQsqaUBKTNV-1" source="K264SJ19d_QHVop9HXx--22" target="K264SJ19d_QHVop9HXx--13">
          <mxGeometry relative="1" as="geometry" />
        </mxCell>
        <mxCell id="K264SJ19d_QHVop9HXx--35" value="no" style="edgeLabel;html=1;align=center;verticalAlign=middle;resizable=0;points=[];" vertex="1" connectable="0" parent="K264SJ19d_QHVop9HXx--34">
          <mxGeometry x="-0.7878" y="-1" relative="1" as="geometry">
            <mxPoint as="offset" />
          </mxGeometry>
        </mxCell>
        <mxCell id="K264SJ19d_QHVop9HXx--37" style="edgeStyle=orthogonalEdgeStyle;rounded=0;orthogonalLoop=1;jettySize=auto;html=1;exitX=0;exitY=0.5;exitDx=0;exitDy=0;entryX=1;entryY=0.5;entryDx=0;entryDy=0;" edge="1" parent="WIyWlLk6GJQsqaUBKTNV-1" source="K264SJ19d_QHVop9HXx--22" target="K264SJ19d_QHVop9HXx--36">
          <mxGeometry relative="1" as="geometry" />
        </mxCell>
        <mxCell id="K264SJ19d_QHVop9HXx--38" value="yes" style="edgeLabel;html=1;align=center;verticalAlign=middle;resizable=0;points=[];" vertex="1" connectable="0" parent="K264SJ19d_QHVop9HXx--37">
          <mxGeometry x="-0.7487" y="1" relative="1" as="geometry">
            <mxPoint x="-13" y="-1" as="offset" />
          </mxGeometry>
        </mxCell>
        <mxCell id="K264SJ19d_QHVop9HXx--42" style="edgeStyle=orthogonalEdgeStyle;rounded=0;orthogonalLoop=1;jettySize=auto;html=1;exitX=0.5;exitY=1;exitDx=0;exitDy=0;entryX=0.5;entryY=0;entryDx=0;entryDy=0;" edge="1" parent="WIyWlLk6GJQsqaUBKTNV-1" source="K264SJ19d_QHVop9HXx--22" target="K264SJ19d_QHVop9HXx--41">
          <mxGeometry relative="1" as="geometry" />
        </mxCell>
        <mxCell id="K264SJ19d_QHVop9HXx--22" value="&lt;div&gt;check 是否最&lt;/div&gt;&lt;div&gt;后一条记录&lt;/div&gt;" style="rhombus;whiteSpace=wrap;html=1;" vertex="1" parent="WIyWlLk6GJQsqaUBKTNV-1">
          <mxGeometry x="205" y="370" width="103.74" height="81" as="geometry" />
        </mxCell>
        <mxCell id="K264SJ19d_QHVop9HXx--25" style="edgeStyle=orthogonalEdgeStyle;rounded=0;orthogonalLoop=1;jettySize=auto;html=1;exitX=0;exitY=0.5;exitDx=0;exitDy=0;" edge="1" parent="WIyWlLk6GJQsqaUBKTNV-1" source="K264SJ19d_QHVop9HXx--24" target="K264SJ19d_QHVop9HXx--13">
          <mxGeometry relative="1" as="geometry" />
        </mxCell>
        <mxCell id="K264SJ19d_QHVop9HXx--26" value="yse" style="edgeLabel;html=1;align=center;verticalAlign=middle;resizable=0;points=[];" vertex="1" connectable="0" parent="K264SJ19d_QHVop9HXx--25">
          <mxGeometry x="-0.74" y="-1" relative="1" as="geometry">
            <mxPoint x="-7" y="1" as="offset" />
          </mxGeometry>
        </mxCell>
        <mxCell id="K264SJ19d_QHVop9HXx--43" style="edgeStyle=orthogonalEdgeStyle;rounded=0;orthogonalLoop=1;jettySize=auto;html=1;exitX=0.5;exitY=1;exitDx=0;exitDy=0;entryX=1;entryY=0.5;entryDx=0;entryDy=0;" edge="1" parent="WIyWlLk6GJQsqaUBKTNV-1" source="K264SJ19d_QHVop9HXx--24" target="K264SJ19d_QHVop9HXx--41">
          <mxGeometry relative="1" as="geometry" />
        </mxCell>
        <mxCell id="K264SJ19d_QHVop9HXx--44" value="no" style="edgeLabel;html=1;align=center;verticalAlign=middle;resizable=0;points=[];" vertex="1" connectable="0" parent="K264SJ19d_QHVop9HXx--43">
          <mxGeometry x="-0.848" y="2" relative="1" as="geometry">
            <mxPoint as="offset" />
          </mxGeometry>
        </mxCell>
        <mxCell id="K264SJ19d_QHVop9HXx--24" value="&lt;div&gt;specStatus=&lt;/div&gt;&lt;div&gt;in-use&lt;br&gt;&lt;/div&gt;" style="rhombus;whiteSpace=wrap;html=1;" vertex="1" parent="WIyWlLk6GJQsqaUBKTNV-1">
          <mxGeometry x="510" y="210" width="80" height="80" as="geometry" />
        </mxCell>
        <mxCell id="K264SJ19d_QHVop9HXx--39" style="edgeStyle=orthogonalEdgeStyle;rounded=0;orthogonalLoop=1;jettySize=auto;html=1;exitX=0;exitY=0.5;exitDx=0;exitDy=0;entryX=0.5;entryY=1;entryDx=0;entryDy=0;" edge="1" parent="WIyWlLk6GJQsqaUBKTNV-1" source="K264SJ19d_QHVop9HXx--36" target="K264SJ19d_QHVop9HXx--4">
          <mxGeometry relative="1" as="geometry">
            <Array as="points">
              <mxPoint x="40" y="411" />
              <mxPoint x="40" y="160" />
              <mxPoint x="80" y="160" />
            </Array>
          </mxGeometry>
        </mxCell>
        <mxCell id="K264SJ19d_QHVop9HXx--36" value="&lt;div&gt;errorMessage&lt;/div&gt;&lt;div&gt;&amp;gt;0&lt;br&gt;&lt;/div&gt;" style="rhombus;whiteSpace=wrap;html=1;" vertex="1" parent="WIyWlLk6GJQsqaUBKTNV-1">
          <mxGeometry x="70" y="371" width="80" height="80" as="geometry" />
        </mxCell>
        <mxCell id="K264SJ19d_QHVop9HXx--46" value="" style="edgeStyle=orthogonalEdgeStyle;rounded=0;orthogonalLoop=1;jettySize=auto;html=1;" edge="1" parent="WIyWlLk6GJQsqaUBKTNV-1" source="K264SJ19d_QHVop9HXx--41" target="K264SJ19d_QHVop9HXx--45">
          <mxGeometry relative="1" as="geometry" />
        </mxCell>
        <mxCell id="K264SJ19d_QHVop9HXx--41" value="&lt;div&gt;修改approvalLog&lt;/div&gt;&lt;div&gt;状态&lt;br&gt;&lt;/div&gt;" style="rounded=1;whiteSpace=wrap;html=1;" vertex="1" parent="WIyWlLk6GJQsqaUBKTNV-1">
          <mxGeometry x="196.87" y="500" width="120" height="60" as="geometry" />
        </mxCell>
        <mxCell id="K264SJ19d_QHVop9HXx--49" style="edgeStyle=orthogonalEdgeStyle;rounded=0;orthogonalLoop=1;jettySize=auto;html=1;exitX=1;exitY=0.5;exitDx=0;exitDy=0;entryX=0;entryY=0.5;entryDx=0;entryDy=0;" edge="1" parent="WIyWlLk6GJQsqaUBKTNV-1" source="K264SJ19d_QHVop9HXx--45" target="K264SJ19d_QHVop9HXx--48">
          <mxGeometry relative="1" as="geometry" />
        </mxCell>
        <mxCell id="K264SJ19d_QHVop9HXx--45" value="&lt;div&gt;遍历&lt;br&gt;&lt;/div&gt;&lt;div&gt;specItemList&lt;/div&gt;" style="rounded=1;whiteSpace=wrap;html=1;" vertex="1" parent="WIyWlLk6GJQsqaUBKTNV-1">
          <mxGeometry x="196.87" y="640" width="120" height="60" as="geometry" />
        </mxCell>
        <mxCell id="K264SJ19d_QHVop9HXx--51" style="edgeStyle=orthogonalEdgeStyle;rounded=0;orthogonalLoop=1;jettySize=auto;html=1;exitX=0.5;exitY=1;exitDx=0;exitDy=0;" edge="1" parent="WIyWlLk6GJQsqaUBKTNV-1" source="K264SJ19d_QHVop9HXx--48" target="K264SJ19d_QHVop9HXx--50">
          <mxGeometry relative="1" as="geometry" />
        </mxCell>
        <mxCell id="K264SJ19d_QHVop9HXx--48" value="&lt;div&gt;修改item的&lt;/div&gt;&lt;div&gt;DeleteFlag=true&lt;br&gt;&lt;/div&gt;" style="rounded=1;whiteSpace=wrap;html=1;" vertex="1" parent="WIyWlLk6GJQsqaUBKTNV-1">
          <mxGeometry x="390" y="640" width="120" height="60" as="geometry" />
        </mxCell>
        <mxCell id="K264SJ19d_QHVop9HXx--52" style="edgeStyle=orthogonalEdgeStyle;rounded=0;orthogonalLoop=1;jettySize=auto;html=1;exitX=0;exitY=0.5;exitDx=0;exitDy=0;entryX=0.5;entryY=1;entryDx=0;entryDy=0;" edge="1" parent="WIyWlLk6GJQsqaUBKTNV-1" source="K264SJ19d_QHVop9HXx--50" target="K264SJ19d_QHVop9HXx--45">
          <mxGeometry relative="1" as="geometry" />
        </mxCell>
        <mxCell id="K264SJ19d_QHVop9HXx--53" value="no" style="edgeLabel;html=1;align=center;verticalAlign=middle;resizable=0;points=[];" vertex="1" connectable="0" parent="K264SJ19d_QHVop9HXx--52">
          <mxGeometry x="-0.7054" y="3" relative="1" as="geometry">
            <mxPoint as="offset" />
          </mxGeometry>
        </mxCell>
        <mxCell id="K264SJ19d_QHVop9HXx--55" value="" style="edgeStyle=orthogonalEdgeStyle;rounded=0;orthogonalLoop=1;jettySize=auto;html=1;" edge="1" parent="WIyWlLk6GJQsqaUBKTNV-1" source="K264SJ19d_QHVop9HXx--50" target="K264SJ19d_QHVop9HXx--54">
          <mxGeometry relative="1" as="geometry" />
        </mxCell>
        <mxCell id="K264SJ19d_QHVop9HXx--56" value="yes" style="edgeLabel;html=1;align=center;verticalAlign=middle;resizable=0;points=[];" vertex="1" connectable="0" parent="K264SJ19d_QHVop9HXx--55">
          <mxGeometry x="-0.2928" y="-1" relative="1" as="geometry">
            <mxPoint as="offset" />
          </mxGeometry>
        </mxCell>
        <mxCell id="K264SJ19d_QHVop9HXx--50" value="&lt;div&gt;check 是否最&lt;/div&gt;&lt;div&gt;后一条记录&lt;/div&gt;" style="rhombus;whiteSpace=wrap;html=1;" vertex="1" parent="WIyWlLk6GJQsqaUBKTNV-1">
          <mxGeometry x="398.13" y="750" width="103.74" height="81" as="geometry" />
        </mxCell>
        <mxCell id="K264SJ19d_QHVop9HXx--54" value="end" style="rounded=1;whiteSpace=wrap;html=1;" vertex="1" parent="WIyWlLk6GJQsqaUBKTNV-1">
          <mxGeometry x="390" y="921.5" width="120" height="60" as="geometry" />
        </mxCell>
      </root>
    </mxGraphModel>
  </diagram>
</mxfile>
